<svg width="12" height="12" viewBox="0 0 12 12" fill="none" xmlns="http://www.w3.org/2000/svg">
<path d="M10.6667 0.75H1.33333C1.17862 0.75 1.03025 0.811458 0.920854 0.920854C0.811458 1.03025 0.75 1.17862 0.75 1.33333V10.6667C0.75 10.8214 0.811458 10.9697 0.920854 11.0791C1.03025 11.1885 1.17862 11.25 1.33333 11.25H6.35875V7.19H4.99492V5.60042H6.35875V4.43375C6.35875 3.0775 7.18708 2.33842 8.40042 2.33842C8.80817 2.33725 9.2165 2.35825 9.6225 2.40083V3.8125H8.78542C8.12742 3.8125 7.99908 4.12633 7.99908 4.58542V5.5975H9.57233L9.36817 7.18708H7.9985V11.25H10.6667C10.8214 11.25 10.9697 11.1885 11.0791 11.0791C11.1885 10.9697 11.25 10.8214 11.25 10.6667V1.33333C11.25 1.17862 11.1885 1.03025 11.0791 0.920854C10.9697 0.811458 10.8214 0.75 10.6667 0.75Z" fill="#D1D1D1"/>
</svg>
