<svg width="14" height="14" viewBox="0 0 14 14" fill="none" xmlns="http://www.w3.org/2000/svg">
<path fill-rule="evenodd" clip-rule="evenodd" d="M4.3545 0.621996C5.03875 0.590496 5.25692 0.583496 6.99992 0.583496C8.74292 0.583496 8.96109 0.591079 9.64475 0.621996C10.3284 0.652913 10.7951 0.761996 11.2034 0.920079C11.631 1.08166 12.0189 1.33425 12.3398 1.66091C12.6664 1.98116 12.9184 2.3685 13.0794 2.79666C13.2381 3.205 13.3466 3.67166 13.3781 4.35416C13.4096 5.03958 13.4166 5.25775 13.4166 7.00016C13.4166 8.74316 13.409 8.96133 13.3781 9.64558C13.3472 10.3281 13.2381 10.7947 13.0794 11.2031C12.9184 11.6313 12.666 12.0193 12.3398 12.34C12.0189 12.6667 11.631 12.9187 11.2034 13.0797C10.7951 13.2383 10.3284 13.3468 9.64592 13.3783C8.96108 13.4098 8.74292 13.4168 6.99992 13.4168C5.25692 13.4168 5.03875 13.4092 4.3545 13.3783C3.672 13.3474 3.20534 13.2383 2.797 13.0797C2.36879 12.9186 1.98081 12.6662 1.66009 12.34C1.33364 12.0196 1.08102 11.6318 0.919835 11.2037C0.761752 10.7953 0.653252 10.3287 0.621752 9.64616C0.590252 8.96075 0.583252 8.74258 0.583252 7.00016C0.583252 5.25716 0.590835 5.039 0.621752 4.35533C0.652669 3.67166 0.761752 3.205 0.919835 2.79666C1.08126 2.36854 1.33407 1.98076 1.66067 1.66033C1.98094 1.33396 2.36853 1.08134 2.79642 0.920079C3.20475 0.761996 3.67142 0.653496 4.35392 0.621996H4.3545ZM9.59283 1.777C8.91617 1.74608 8.71317 1.73966 6.99992 1.73966C5.28667 1.73966 5.08367 1.74608 4.407 1.777C3.78109 1.80558 3.44159 1.91 3.21525 1.99808C2.916 2.11475 2.70192 2.253 2.47734 2.47758C2.26444 2.68469 2.10061 2.93683 1.99784 3.2155C1.90975 3.44183 1.80534 3.78133 1.77675 4.40725C1.74584 5.08391 1.73942 5.28691 1.73942 7.00016C1.73942 8.71341 1.74584 8.91641 1.77675 9.59308C1.80534 10.219 1.90975 10.5585 1.99784 10.7848C2.1005 11.0631 2.26442 11.3157 2.47734 11.5227C2.68442 11.7357 2.937 11.8996 3.21525 12.0022C3.44159 12.0903 3.78109 12.1947 4.407 12.2233C5.08367 12.2542 5.28609 12.2607 6.99992 12.2607C8.71375 12.2607 8.91617 12.2542 9.59283 12.2233C10.2188 12.1947 10.5583 12.0903 10.7846 12.0022C11.0838 11.8856 11.2979 11.7473 11.5225 11.5227C11.7354 11.3157 11.8993 11.0631 12.002 10.7848C12.0901 10.5585 12.1945 10.219 12.2231 9.59308C12.254 8.91641 12.2604 8.71341 12.2604 7.00016C12.2604 5.28691 12.254 5.08391 12.2231 4.40725C12.1945 3.78133 12.0901 3.44183 12.002 3.2155C11.8853 2.91625 11.7471 2.70216 11.5225 2.47758C11.3154 2.2647 11.0632 2.10087 10.7846 1.99808C10.5583 1.91 10.2188 1.80558 9.59283 1.777V1.777ZM6.18034 8.97825C6.63805 9.16878 7.14772 9.1945 7.62229 9.051C8.09686 8.9075 8.5069 8.6037 8.78236 8.19147C9.05782 7.77924 9.18162 7.28417 9.13261 6.79081C9.08361 6.29744 8.86484 5.8364 8.51367 5.48641C8.28981 5.26269 8.01913 5.09139 7.72111 4.98483C7.4231 4.87828 7.10517 4.83912 6.79021 4.87019C6.47525 4.90125 6.17109 5.00177 5.89964 5.16449C5.62818 5.32721 5.39619 5.5481 5.22035 5.81124C5.0445 6.07439 4.9292 6.37325 4.88272 6.68631C4.83624 6.99936 4.85976 7.31883 4.95157 7.62171C5.04338 7.92459 5.2012 8.20335 5.41367 8.43792C5.62615 8.67248 5.88798 8.85702 6.18034 8.97825ZM4.66775 4.668C4.97402 4.36173 5.33761 4.11879 5.73776 3.95304C6.13791 3.78729 6.5668 3.70198 6.99992 3.70198C7.43304 3.70198 7.86192 3.78729 8.26208 3.95304C8.66223 4.11879 9.02582 4.36173 9.33209 4.668C9.63835 4.97426 9.88129 5.33785 10.047 5.738C10.2128 6.13816 10.2981 6.56704 10.2981 7.00016C10.2981 7.43329 10.2128 7.86217 10.047 8.26232C9.88129 8.66248 9.63835 9.02606 9.33209 9.33233C8.71356 9.95086 7.87465 10.2983 6.99992 10.2983C6.12519 10.2983 5.28628 9.95086 4.66775 9.33233C4.04922 8.7138 3.70174 7.87489 3.70174 7.00016C3.70174 6.12543 4.04922 5.28652 4.66775 4.668V4.668ZM11.0296 4.19316C11.1055 4.12157 11.1662 4.03548 11.2083 3.93998C11.2503 3.84449 11.2727 3.74153 11.2742 3.63721C11.2758 3.53288 11.2563 3.42932 11.2171 3.33264C11.1779 3.23595 11.1197 3.14813 11.0459 3.07435C10.9721 3.00058 10.8843 2.94235 10.7876 2.90313C10.6909 2.86391 10.5874 2.84448 10.483 2.846C10.3787 2.84752 10.2758 2.86996 10.1803 2.91199C10.0848 2.95401 9.99868 3.01477 9.92708 3.09066C9.78785 3.23826 9.71162 3.43432 9.71458 3.63721C9.71754 3.84009 9.79945 4.03384 9.94293 4.17732C10.0864 4.3208 10.2802 4.40271 10.483 4.40567C10.6859 4.40863 10.882 4.3324 11.0296 4.19316V4.19316Z" fill="#D1D1D1"/>
</svg>
